<svg xmlns="http://www.w3.org/2000/svg" version="1.1" width="718px" height="204px" style="shape-rendering:geometricPrecision; text-rendering:geometricPrecision; image-rendering:optimizeQuality; fill-rule:evenodd; clip-rule:evenodd" xmlns:xlink="http://www.w3.org/1999/xlink">
<g><path style="opacity:1" fill="#fdfefe" d="M -0.5,-0.5 C 238.833,-0.5 478.167,-0.5 717.5,-0.5C 717.5,67.5 717.5,135.5 717.5,203.5C 478.167,203.5 238.833,203.5 -0.5,203.5C -0.5,135.5 -0.5,67.5 -0.5,-0.5 Z"/></g>
<g><path style="opacity:1" fill="#0d6da7" d="M 304.5,29.5 C 320.659,26.9403 334.159,31.6069 345,43.5C 345.609,51.5647 342.109,54.3981 334.5,52C 328.787,45.6481 321.62,42.8147 313,43.5C 304.891,42.6457 298.224,45.3124 293,51.5C 292.855,55.7003 294.689,58.867 298.5,61C 305.844,63.9603 313.51,65.2937 321.5,65C 333.107,66.5358 341.607,72.3691 347,82.5C 349.101,93.126 345.601,101.293 336.5,107C 324.1,112.829 311.267,113.995 298,110.5C 291.354,108.185 286.021,104.185 282,98.5C 281.756,90.1901 285.59,87.6901 293.5,91C 302.798,99.7753 313.465,101.775 325.5,97C 334.306,93.7784 335.639,88.7784 329.5,82C 326.911,80.8035 324.244,79.8035 321.5,79C 306.532,80.2268 293.699,75.7268 283,65.5C 276.628,53.6874 278.794,43.8541 289.5,36C 294.367,33.2259 299.367,31.0593 304.5,29.5 Z"/></g>
<g><path style="opacity:1" fill="#1870a9" d="M 360.5,29.5 C 380.503,29.3334 400.503,29.5 420.5,30C 421.931,30.4652 423.097,31.2986 424,32.5C 424.667,35.1667 424.667,37.8333 424,40.5C 423.097,41.7014 421.931,42.5348 420.5,43C 400.833,43.6667 381.167,43.6667 361.5,43C 355.216,39.0066 354.883,34.5066 360.5,29.5 Z"/></g>
<g><path style="opacity:1" fill="#066ca6" d="M 479.5,43.5 C 469.013,42.5056 458.346,42.1722 447.5,42.5C 447.5,64.5 447.5,86.5 447.5,108.5C 445.206,112.252 441.872,113.419 437.5,112C 436.299,111.097 435.465,109.931 435,108.5C 434.333,83.5 434.333,58.5 435,33.5C 436.167,32.3333 437.333,31.1667 438.5,30C 445.833,29.8333 453.167,29.6667 460.5,29.5C 469.225,29.3945 477.892,29.8945 486.5,31C 503.361,39.4474 507.195,51.9474 498,68.5C 493.72,73.0595 488.553,76.2261 482.5,78C 488.639,86.44 495.139,94.6067 502,102.5C 503.447,110.386 500.28,113.553 492.5,112C 481.731,99.6216 471.565,86.7883 462,73.5C 460.824,69.7399 461.99,66.9066 465.5,65C 470.833,64.6667 476.167,64.3333 481.5,64C 488.553,60.4228 490.386,54.9228 487,47.5C 485.117,44.9756 482.617,43.6423 479.5,43.5 Z"/></g>
<g><path style="opacity:1" fill="#0a6da7" d="M 581.5,106.5 C 581.833,88.8208 581.5,71.1541 580.5,53.5C 579.893,53.6236 579.56,53.9569 579.5,54.5C 572.369,62.1316 565.036,69.6316 557.5,77C 554.366,77.7901 551.366,77.4568 548.5,76C 541,68.5 533.5,61 526,53.5C 525.667,71.8333 525.333,90.1667 525,108.5C 522.533,112.559 519.033,113.559 514.5,111.5C 513.667,110.5 512.833,109.5 512,108.5C 511.333,83.5 511.333,58.5 512,33.5C 514.251,29.8735 517.418,28.7069 521.5,30C 532.651,39.9844 543.318,50.4844 553.5,61.5C 563.625,50.8743 573.958,40.3743 584.5,30C 587.588,29.1533 590.421,29.6533 593,31.5C 594.648,57.0795 594.981,82.7461 594,108.5C 591.947,112.292 588.781,113.458 584.5,112C 582.393,110.736 581.393,108.903 581.5,106.5 Z"/></g>
<g><path style="opacity:1" fill="#0b6da7" d="M 637.5,29.5 C 662.694,28.1652 678.861,39.4986 686,63.5C 688.21,88.6186 677.376,104.785 653.5,112C 629.496,114.987 613.329,105.154 605,82.5C 600.62,63.1021 606.454,47.6021 622.5,36C 627.367,33.2259 632.367,31.0593 637.5,29.5 Z"/></g>
<g><path style="opacity:1" fill="#066da7" d="M 178.5,32.5 C 182.684,31.7036 185.85,33.037 188,36.5C 188.667,82.8333 188.667,129.167 188,175.5C 183.667,180.833 179.333,180.833 175,175.5C 174.333,129.167 174.333,82.8333 175,36.5C 176.032,34.9733 177.199,33.64 178.5,32.5 Z"/></g>
<g><path style="opacity:1" fill="#016ba6" d="M 62.5,38.5 C 66.6838,37.7036 69.8504,39.037 72,42.5C 72.6667,84.8333 72.6667,127.167 72,169.5C 69.3689,173.629 65.8689,174.462 61.5,172C 60.8742,171.25 60.3742,170.416 60,169.5C 59.3333,126.833 59.3333,84.1667 60,41.5C 61.045,40.6266 61.8783,39.6266 62.5,38.5 Z"/></g>
<g><path style="opacity:1" fill="#fcfdfe" d="M 637.5,43.5 C 661.842,42.0093 673.342,53.3426 672,77.5C 666.608,93.6152 655.441,100.782 638.5,99C 622.519,93.0038 615.686,81.5038 618,64.5C 620.95,54.0551 627.45,47.0551 637.5,43.5 Z"/></g>
<g><path style="opacity:1" fill="#137c69" d="M 216.5,52.5 C 221.439,51.3519 224.939,53.0186 227,57.5C 227.667,89.8333 227.667,122.167 227,154.5C 223.468,160.29 219.135,160.957 214,156.5C 213.333,122.833 213.333,89.1667 214,55.5C 215.045,54.6266 215.878,53.6266 216.5,52.5 Z"/></g>
<g><path style="opacity:1" fill="#7eb3d1" d="M 579.5,54.5 C 579.56,53.9569 579.893,53.6236 580.5,53.5C 581.5,71.1541 581.833,88.8208 581.5,106.5C 580.833,89.1667 580.167,71.8333 579.5,54.5 Z"/></g>
<g><path style="opacity:1" fill="#067a66" d="M 100.5,56.5 C 102.857,56.3367 105.19,56.5034 107.5,57C 109.333,57.5 110.5,58.6667 111,60.5C 111.667,90.8333 111.667,121.167 111,151.5C 106.667,158.167 102.333,158.167 98,151.5C 97.3333,121.167 97.3333,90.8333 98,60.5C 98.6622,59.0161 99.4955,57.6828 100.5,56.5 Z"/></g>
<g><path style="opacity:1" fill="#077a66" d="M 24.5,59.5 C 28.8884,58.9433 32.0551,60.6099 34,64.5C 34.6667,92.1667 34.6667,119.833 34,147.5C 30.1709,153.703 25.8376,154.036 21,148.5C 20.3333,120.167 20.3333,91.8333 21,63.5C 22.3756,62.2949 23.5423,60.9616 24.5,59.5 Z"/></g>
<g><path style="opacity:1" fill="#82b5d2" d="M 479.5,43.5 C 469.167,43.5 458.833,43.5 448.5,43.5C 448.831,65.3398 448.497,87.0064 447.5,108.5C 447.5,86.5 447.5,64.5 447.5,42.5C 458.346,42.1722 469.013,42.5056 479.5,43.5 Z"/></g>
<g><path style="opacity:1" fill="#176fa8" d="M 360.5,64.5 C 380.836,64.3334 401.169,64.5 421.5,65C 427.052,69.7891 426.719,74.1224 420.5,78C 400.833,78.6667 381.167,78.6667 361.5,78C 356.52,73.9668 356.187,69.4668 360.5,64.5 Z"/></g>
<g><path style="opacity:1" fill="#047965" d="M 140.5,70.5 C 144.315,69.8285 147.149,71.1619 149,74.5C 149.667,95.5 149.667,116.5 149,137.5C 144.912,142.701 140.912,142.701 137,137.5C 136.333,116.5 136.333,95.5 137,74.5C 138.102,73.051 139.269,71.7177 140.5,70.5 Z"/></g>
<g><path style="opacity:1" fill="#036ba6" d="M 360.5,99.5 C 380.836,99.3334 401.169,99.5 421.5,100C 425.5,104 425.5,108 421.5,112C 401.167,112.667 380.833,112.667 360.5,112C 355.38,107.926 355.38,103.759 360.5,99.5 Z"/></g>
<g><path style="opacity:1" fill="#187e6b" d="M 292.5,129.5 C 301.045,128.507 309.045,130.007 316.5,134C 318.019,135.351 319.352,136.851 320.5,138.5C 320,139.881 319,140.547 317.5,140.5C 308.558,133.953 298.892,132.787 288.5,137C 282.356,141.01 282.023,145.344 287.5,150C 289.957,151.562 292.624,152.562 295.5,153C 304.322,152.659 312.155,155.159 319,160.5C 324.111,170.461 321.277,177.294 310.5,181C 301.861,183.541 293.527,182.874 285.5,179C 282.588,177.142 281.088,174.642 281,171.5C 281.561,170.978 282.228,170.645 283,170.5C 289.908,176.937 298.075,179.104 307.5,177C 321.057,170.413 320.723,164.413 306.5,159C 296.6,160.144 288.1,157.311 281,150.5C 279,146.167 279,141.833 281,137.5C 284.482,134.161 288.315,131.494 292.5,129.5 Z"/></g>
<g><path style="opacity:1" fill="#187e6b" d="M 378.5,129.5 C 379.552,129.351 380.552,129.517 381.5,130C 389.014,137.681 396.681,145.181 404.5,152.5C 411.625,144.874 418.958,137.374 426.5,130C 427.784,129.316 428.951,129.483 430,130.5C 430.825,147.741 430.658,164.907 429.5,182C 428.216,182.684 427.049,182.517 426,181.5C 425.667,167.167 425.333,152.833 425,138.5C 418.319,145.348 411.486,152.015 404.5,158.5C 397.181,151.681 390.014,144.681 383,137.5C 382.667,152.167 382.333,166.833 382,181.5C 380.667,182.833 379.333,182.833 378,181.5C 377.182,164.093 377.348,146.76 378.5,129.5 Z"/></g>
<g><path style="opacity:1" fill="#127d6a" d="M 442.5,138.5 C 442.44,137.957 442.107,137.624 441.5,137.5C 440.501,152.152 440.167,166.818 440.5,181.5C 439.458,182.791 438.292,182.791 437,181.5C 436.333,164.5 436.333,147.5 437,130.5C 437.561,129.978 438.228,129.645 439,129.5C 447.291,136.79 455.291,144.456 463,152.5C 470.5,145 478,137.5 485.5,130C 486.784,129.316 487.951,129.483 489,130.5C 489.667,147.5 489.667,164.5 489,181.5C 487.667,182.833 486.333,182.833 485,181.5C 484.667,167.167 484.333,152.833 484,138.5C 477.291,145.544 470.291,152.211 463,158.5C 455.675,152.341 448.841,145.675 442.5,138.5 Z"/></g>
<g><path style="opacity:1" fill="#127d6a" d="M 496.5,129.5 C 510.167,129.5 523.833,129.5 537.5,129.5C 537.714,131.144 537.38,132.644 536.5,134C 523.167,134.667 509.833,134.667 496.5,134C 495.272,132.51 495.272,131.01 496.5,129.5 Z"/></g>
<g><path style="opacity:1" fill="#1e816e" d="M 545.5,129.5 C 559.171,129.333 572.837,129.5 586.5,130C 587.833,131.333 587.833,132.667 586.5,134C 580.509,134.499 574.509,134.666 568.5,134.5C 568.667,150.17 568.5,165.837 568,181.5C 566.667,182.833 565.333,182.833 564,181.5C 563.5,165.837 563.333,150.17 563.5,134.5C 557.824,134.666 552.157,134.499 546.5,134C 545.62,132.644 545.286,131.144 545.5,129.5 Z"/></g>
<g><path style="opacity:1" fill="#1c806d" d="M 595.5,129.5 C 605.839,129.334 616.172,129.5 626.5,130C 635.351,133.538 638.518,140.038 636,149.5C 632.652,155.593 627.485,158.759 620.5,159C 625.214,164.926 630.047,170.759 635,176.5C 636.128,178.345 636.628,180.345 636.5,182.5C 633.737,182.256 631.571,180.923 630,178.5C 624.128,171.249 618.628,163.749 613.5,156C 613.645,155.228 613.978,154.561 614.5,154C 618.167,153.667 621.833,153.333 625.5,153C 631.666,149.344 633.166,144.178 630,137.5C 629.097,136.299 627.931,135.465 626.5,135C 617.506,134.5 608.506,134.334 599.5,134.5C 599.667,150.17 599.5,165.837 599,181.5C 597.667,182.833 596.333,182.833 595,181.5C 594.182,164.093 594.348,146.76 595.5,129.5 Z"/></g>
<g><path style="opacity:1" fill="#187f6c" d="M 644.5,129.5 C 646.903,129.393 648.736,130.393 650,132.5C 655.008,139.003 660.174,145.336 665.5,151.5C 670.908,145.014 676.075,138.347 681,131.5C 684.379,128.51 686.045,129.176 686,133.5C 679.759,140.985 673.759,148.652 668,156.5C 667.818,165.078 667.318,173.578 666.5,182C 665.216,182.684 664.049,182.517 663,181.5C 662.667,172.833 662.333,164.167 662,155.5C 656,148.167 650,140.833 644,133.5C 643.421,132.072 643.588,130.738 644.5,129.5 Z"/></g>
<g><path style="opacity:1" fill="#187c69" d="M 329.5,129.5 C 331.903,129.393 333.736,130.393 335,132.5C 340.008,139.003 345.174,145.336 350.5,151.5C 355.989,144.539 361.489,137.539 367,130.5C 370.333,128.833 371.667,129.833 371,133.5C 364.759,140.985 358.759,148.652 353,156.5C 352.818,165.078 352.318,173.578 351.5,182C 350.216,182.684 349.049,182.517 348,181.5C 347.667,172.833 347.333,164.167 347,155.5C 340.591,147.68 334.425,139.68 328.5,131.5C 328.863,130.817 329.196,130.15 329.5,129.5 Z"/></g>
<g><path style="opacity:1" fill="#419a8b" d="M 442.5,138.5 C 441.833,152.833 441.167,167.167 440.5,181.5C 440.167,166.818 440.501,152.152 441.5,137.5C 442.107,137.624 442.44,137.957 442.5,138.5 Z"/></g>
<g><path style="opacity:1" fill="#057965" d="M 496.5,153.5 C 510.171,153.333 523.837,153.5 537.5,154C 538.833,155.333 538.833,156.667 537.5,158C 523.833,158.667 510.167,158.667 496.5,158C 495.272,156.51 495.272,155.01 496.5,153.5 Z"/></g>
<g><path style="opacity:1" fill="#137e6a" d="M 496.5,177.5 C 509.837,177.333 523.171,177.5 536.5,178C 537.38,179.356 537.714,180.856 537.5,182.5C 523.829,182.667 510.163,182.5 496.5,182C 495.272,180.51 495.272,179.01 496.5,177.5 Z"/></g>
</svg>
